<svg version="1.2" xmlns="http://www.w3.org/2000/svg" viewBox="0 0 383 383" width="30" height="30">
	<title>target</title>
	<style>
		.s0 { opacity: 1;fill: #000000 } 
	</style>
	<path id="Path 0" fill-rule="evenodd" class="s0" d="m191.3 10c0.4 0 2.2 0.6 3.9 1.3 1.8 0.7 4.1 2.4 5.1 3.8 1.3 1.8 1.7 4.3 1.7 9.7 0 3.9 0.2 7.2 0.5 7.2 0.3 0 5.3 0.7 11.2 1.5 6 0.8 14.6 2.6 19.3 3.9 4.7 1.3 12.8 4 18 6 5.2 2 12.4 5.3 16 7.3 3.6 2 10.5 6.4 15.5 9.7 4.9 3.4 13.6 10.6 19.3 16.1 5.8 5.5 13.5 14.1 17.2 19 3.8 4.9 9.1 13.1 11.9 18 2.8 4.9 6.9 13.5 9.1 19 2.1 5.5 5 14.3 6.3 19.5 1.4 5.2 3.1 13.9 5.2 28.8l7.7 0.4c6.5 0.3 8 0.7 10.2 2.8 1.5 1.4 2.9 4.1 3.3 6 0.4 2.3 0 4.5-1.1 6.5-0.8 1.6-2.7 3.6-4.1 4.3-1.4 0.6-5.6 1.2-16.5 1.2l-0.6 6.8c-0.3 3.7-1.5 11-2.6 16.2-1.1 5.2-3.6 14-5.5 19.5-1.9 5.5-5.9 14.7-8.9 20.5-3 5.8-8.5 14.8-12.2 20-3.7 5.2-11.2 14-16.7 19.5-5.5 5.5-14.3 13-19.5 16.7-5.2 3.7-14.2 9.2-20 12.2-5.8 3-15 7-20.5 8.9-5.5 1.9-14.3 4.4-19.5 5.5-5.2 1.1-12.5 2.3-23 3.2v7c0 3.9-0.6 8.1-1.3 9.5-0.6 1.4-2.6 3.3-4.2 4.1-2 1.1-4.2 1.5-6.5 1.1-1.9-0.4-4.6-1.8-6-3.3-2.1-2.2-2.5-3.7-3.2-17.9l-9.6-1.3c-5.3-0.8-14-2.5-19.2-3.9-5.2-1.3-14-4.2-19.5-6.3-5.5-2.2-14.1-6.3-19-9.1-5-2.8-13.1-8.1-18-11.9-5-3.7-13.5-11.4-19-17.2-5.5-5.7-12.8-14.4-16.2-19.3-3.3-5-8.4-13.5-11.1-19-2.8-5.5-6.9-15.4-9.1-22-2.2-6.6-4.7-16.1-5.5-21-0.8-4.9-1.7-11.1-2.6-18.5h-7.3c-5.7 0.1-7.8-0.3-10-2-1.5-1.1-3.2-3.6-3.7-5.5-0.8-2.7-0.6-4.3 0.5-7 0.8-2 2.8-4.2 4.5-5 1.7-0.9 5.7-1.5 16-1.5l0.4-3.3c0.3-1.7 1.2-7.9 2.1-13.7 1-5.8 3.4-15.7 5.5-22 2-6.3 6.2-16.4 9.3-22.5 3.1-6.1 8.4-15.1 11.9-20 3.5-4.9 11.5-14.2 17.8-20.5 6.3-6.3 15.1-14 19.5-17.1 4.4-3.2 12.3-8 17.5-10.7 5.2-2.8 13.7-6.7 18.7-8.6 5.1-2 13.7-4.7 19-6 5.4-1.3 12.5-2.7 15.8-3 3.3-0.4 7.2-0.9 8.7-1.2 2.7-0.4 2.8-0.6 2.8-6.9 0-3.8 0.6-7.8 1.5-9.5 0.8-1.7 3-3.7 4.7-4.5 1.8-0.8 3.6-1.4 4-1.5zm-38.5 60c-5 1.6-13.7 5.2-19.2 8-5.5 2.8-12.9 7.2-16.5 9.8-3.6 2.5-10.8 8.9-16 14.1-5.3 5.3-12.1 13.4-15.2 18.1-3.1 4.7-6.9 11.2-8.6 14.5-1.6 3.3-4.3 9.8-6 14.5-1.6 4.7-3.7 11.9-4.5 16-0.9 4.1-1.8 9.4-2.1 11.7-0.5 3.8-0.3 4.4 1.6 5.1 1.3 0.5 3.3 2.2 4.6 3.8 1.5 1.9 2.3 4.2 2.2 6.6 0 2.8-0.8 4.6-2.9 6.8-1.6 1.6-3.7 3-4.5 3-1.2 0-1.5 0.8-1.1 3.3 0.3 1.7 1 6.1 1.6 9.7 0.6 3.6 2.4 10.8 4.1 16 1.7 5.2 4.8 13.1 7.1 17.5 2.2 4.4 6.3 11.4 9 15.5 2.8 4.1 8.5 11 12.7 15.4 4.1 4.3 10.2 10 13.5 12.6 3.3 2.6 9.4 6.8 13.5 9.2 4.1 2.4 11.3 6.1 16 8.1 4.7 2 12.8 4.7 18 6.1 5.2 1.3 12.1 2.7 15.2 3 5.4 0.6 5.9 0.4 6.7-1.6 0.5-1.3 1.7-3.1 2.7-4 1.1-1 3.5-2.1 5.4-2.4q3.5-0.6 6.7 1c1.8 0.9 3.9 3 4.5 4.6 0.8 1.7 2 3 3 3 1 0 6.4-0.9 12-2.1 5.7-1.1 13-3 16.3-4.1 3.3-1.1 9.4-3.5 13.5-5.4 4.1-2 12-6.5 17.5-10.2 5.5-3.7 13.8-10.5 18.5-15.2 4.7-4.7 11.4-12.8 14.9-18 3.5-5.2 7.6-12 9.1-15 1.5-3 4.2-9.6 5.9-14.5 1.8-4.9 4.1-13.4 5.1-18.8 1.1-5.3 2-10.5 2-11.4 0.1-1.1-1.3-2.4-3.1-3.3-1.7-0.8-3.8-2.7-4.5-4.2-0.8-1.6-1.4-4.2-1.4-5.8 0-2 1-4.1 3.2-6.3 1.8-1.9 4-3.6 4.8-3.9 1.3-0.4 1.3-1.6-0.3-10.4-1-5.4-3.2-14-4.8-18.9-1.7-4.9-4.8-12.6-7-17-2.2-4.4-6.1-11.2-8.7-15-2.5-3.8-9.4-11.8-15.2-17.6-5.8-5.8-13.9-12.9-18-15.6-4.1-2.8-11.1-6.8-15.5-9-4.4-2.3-12.3-5.4-17.5-7.1-5.2-1.7-12.4-3.5-16-4.1-3.6-0.6-8-1.3-9.8-1.6-2.4-0.4-3.2-0.1-3.2 1 0 0.8-1.3 2.8-2.9 4.5-2.3 2.4-3.8 3-7 3-2.3 0-5.1-0.6-6.4-1.4-1.2-0.8-2.9-2.8-3.7-4.5-0.8-1.8-2-3.1-2.5-3-0.6 0-4.7 0.7-9.3 1.5-4.5 0.8-12.4 2.7-17.5 4.4zm42.8 68.7c3.9 0.3 9.9 1.5 13.5 2.7 3.6 1.2 9.2 4 12.4 6.1 3.3 2.2 7.9 6.2 10.3 9 2.4 2.7 5.9 8.2 7.8 12 1.8 3.8 3.8 9.7 4.4 13 0.6 3.3 1.1 8.2 1.1 11 0 2.7-0.7 7.9-1.6 11.5-0.8 3.6-2.9 9.2-4.7 12.5-1.7 3.3-6.1 9-9.7 12.6-4 4-8.9 7.8-12.8 9.8-3.4 1.7-9 3.8-12.5 4.6-3.4 0.8-8.5 1.5-11.2 1.5-2.8 0-7.7-0.5-11-1.1-3.3-0.6-9.2-2.6-13-4.5-3.9-1.8-9.3-5.3-12-7.7-2.8-2.4-6.8-7-9-10.3-2.1-3.2-5-9-6.4-12.9-1.8-5.4-2.4-9.1-2.4-16-0.1-5.8 0.6-11.1 1.7-15 1-3.3 3.2-8.6 4.9-11.9 1.8-3.2 5.7-8.4 8.8-11.5 3.1-3.1 8.3-7 11.5-8.8 3.3-1.7 8.4-3.8 11.4-4.7 3-0.8 6.9-1.7 8.5-1.9 1.6-0.3 6.1-0.3 10 0z"/>
</svg>